<svg xmlns="http://www.w3.org/2000/svg" version="1.1" xmlns:xlink="http://www.w3.org/1999/xlink" xmlns:svgjs="http://svgjs.com/svgjs" width="1440" height="560" preserveAspectRatio="none" viewBox="0 0 1440 560"><g mask="url(&quot;#SvgjsMask1035&quot;)" fill="none"><rect width="1440" height="560" x="0" y="0" fill="url(#SvgjsLinearGradient1036)"></rect><rect width="288" height="288" clip-path="url(&quot;#SvgjsClipPath1037&quot;)" x="1187.52" y="-119.01" fill="url(#SvgjsPattern1038)" transform="rotate(81.66, 1331.52, 24.99)"></rect><rect width="158.64" height="158.64" clip-path="url(&quot;#SvgjsClipPath1039&quot;)" x="274.38" y="31.87" fill="url(#SvgjsPattern1040)" transform="rotate(49.51, 353.7, 111.19)"></rect><circle r="46.666666666666664" cx="505.56" cy="418.15" fill="#e73635"></circle><circle r="55.85262196206603" cx="1282.23" cy="529.21" fill="#d3b714"></circle><rect width="117.76" height="117.76" clip-path="url(&quot;#SvgjsClipPath1041&quot;)" x="475.46" y="-15.11" fill="url(#SvgjsPattern1042)" transform="rotate(260.59, 534.34, 43.77)"></rect><rect width="111.4" height="111.4" clip-path="url(&quot;#SvgjsClipPath1043&quot;)" x="198.23" y="11.76" fill="url(#SvgjsPattern1044)" transform="rotate(0.37, 253.93, 67.46)"></rect><rect width="297.92" height="297.92" clip-path="url(&quot;#SvgjsClipPath1045&quot;)" x="560.66" y="200.78" fill="url(#SvgjsPattern1046)" transform="rotate(131.79, 709.62, 349.74)"></rect><rect width="198.8" height="198.8" clip-path="url(&quot;#SvgjsClipPath1047&quot;)" x="854.93" y="301.29" fill="url(#SvgjsPattern1048)" transform="rotate(344.4, 954.33, 400.69)"></rect><rect width="144" height="144" clip-path="url(&quot;#SvgjsClipPath1049&quot;)" x="-16.02" y="363.85" fill="url(#SvgjsPattern1050)" transform="rotate(341.22, 55.98, 435.85)"></rect><rect width="270.24" height="270.24" clip-path="url(&quot;#SvgjsClipPath1051&quot;)" x="156.93" y="93.13" fill="url(#SvgjsPattern1052)" transform="rotate(214.43, 292.05, 228.25)"></rect><path d="M207.38 249.27 L249.59 366.3L163.5667678516918 372.70323214830825z" fill="#e73635"></path><path d="M289.13 400.15a5.6 5.6 0 1 0-10.5-3.9 5.6 5.6 0 1 0 10.5 3.9zM274.13 394.58a5.6 5.6 0 1 0-10.5-3.9 5.6 5.6 0 1 0 10.5 3.9zM259.13 389.01a5.6 5.6 0 1 0-10.5-3.89 5.6 5.6 0 1 0 10.5 3.89zM244.13 383.45a5.6 5.6 0 1 0-10.5-3.9 5.6 5.6 0 1 0 10.5 3.9z" fill="#d3b714"></path></g><defs><mask id="SvgjsMask1035"><rect width="1440" height="560" fill="#ffffff"></rect></mask><linearGradient x1="15.28%" y1="-39.29%" x2="84.72%" y2="139.29%" gradientUnits="userSpaceOnUse" id="SvgjsLinearGradient1036"><stop stop-color="#0e2a47" offset="0"></stop><stop stop-color="#00459e" offset="1"></stop></linearGradient><pattern x="0" y="0" width="288" height="6" patternUnits="userSpaceOnUse" id="SvgjsPattern1038"><rect width="288" height="3" x="0" y="0" fill="#037b0b"></rect><rect width="288" height="3" x="0" y="3" fill="rgba(0, 0, 0, 0)"></rect></pattern><clipPath id="SvgjsClipPath1037"><circle r="72" cx="1331.52" cy="24.99"></circle></clipPath><pattern x="0" y="0" width="158.64" height="13.22" patternUnits="userSpaceOnUse" id="SvgjsPattern1040"><rect width="158.64" height="6.61" x="0" y="0" fill="#e73635"></rect><rect width="158.64" height="6.61" x="0" y="6.61" fill="rgba(0, 0, 0, 0)"></rect></pattern><clipPath id="SvgjsClipPath1039"><circle r="39.66" cx="353.7" cy="111.19"></circle></clipPath><pattern x="0" y="0" width="117.76" height="7.36" patternUnits="userSpaceOnUse" id="SvgjsPattern1042"><rect width="117.76" height="3.68" x="0" y="0" fill="#e73635"></rect><rect width="117.76" height="3.68" x="0" y="3.68" fill="rgba(0, 0, 0, 0)"></rect></pattern><clipPath id="SvgjsClipPath1041"><circle r="29.44" cx="534.34" cy="43.77"></circle></clipPath><pattern x="0" y="0" width="11.14" height="11.14" patternUnits="userSpaceOnUse" id="SvgjsPattern1044"><path d="M5.57 1L5.57 10.14M1 5.57L10.14 5.57" stroke="#d3b714" fill="none" stroke-width="2.07"></path></pattern><clipPath id="SvgjsClipPath1043"><circle r="27.85" cx="253.93" cy="67.46"></circle></clipPath><pattern x="0" y="0" width="10.64" height="10.64" patternUnits="userSpaceOnUse" id="SvgjsPattern1046"><path d="M5.32 1L5.32 9.64M1 5.32L9.64 5.32" stroke="#d3b714" fill="none" stroke-width="1"></path></pattern><clipPath id="SvgjsClipPath1045"><circle r="74.48" cx="709.62" cy="349.74"></circle></clipPath><pattern x="0" y="0" width="198.8" height="7.1" patternUnits="userSpaceOnUse" id="SvgjsPattern1048"><rect width="198.8" height="3.55" x="0" y="0" fill="#d3b714"></rect><rect width="198.8" height="3.55" x="0" y="3.55" fill="rgba(0, 0, 0, 0)"></rect></pattern><clipPath id="SvgjsClipPath1047"><circle r="49.7" cx="954.33" cy="400.69"></circle></clipPath><pattern x="0" y="0" width="144" height="6" patternUnits="userSpaceOnUse" id="SvgjsPattern1050"><rect width="144" height="3" x="0" y="0" fill="#037b0b"></rect><rect width="144" height="3" x="0" y="3" fill="rgba(0, 0, 0, 0)"></rect></pattern><clipPath id="SvgjsClipPath1049"><circle r="36" cx="55.98" cy="435.85"></circle></clipPath><pattern x="0" y="0" width="270.24" height="11.26" patternUnits="userSpaceOnUse" id="SvgjsPattern1052"><rect width="270.24" height="5.63" x="0" y="0" fill="#037b0b"></rect><rect width="270.24" height="5.63" x="0" y="5.63" fill="rgba(0, 0, 0, 0)"></rect></pattern><clipPath id="SvgjsClipPath1051"><circle r="67.56" cx="292.05" cy="228.25"></circle></clipPath></defs></svg>