<svg width="1116" height="888" viewBox="450 0 3116 2888" fill="none" xmlns="http://www.w3.org/2000/svg">
<path d="M140.967 645.235L914.288 91.0505L949.995 123.754L237.244 786.542L140.967 645.235Z" fill="#E78A1F"/>
<path d="M857.032 687.692L347.535 163.347L376.267 130.05L938.339 607.987L857.032 687.692Z" fill="#39AD92"/>
<path d="M794 452C794 571.008 694.449 668 571 668C447.551 668 348 571.008 348 452C348 332.992 447.551 236 571 236C694.449 236 794 332.992 794 452Z" stroke="black" stroke-width="20"/>
<path d="M597.5 318L672.5 382L613.5 437L539 360L597.5 318Z" fill="#9E5E88"/>
<ellipse cx="511" cy="353" rx="60" ry="58" fill="#20883D" fill-opacity="0.72"/>
<ellipse cx="668.5" cy="400.5" rx="76.5" ry="73.5" fill="#ACC155" fill-opacity="0.81"/>
<circle cx="596" cy="464" r="111" fill="#9C331C" fill-opacity="0.72"/>
<circle cx="538.5" cy="464.5" r="53.5" fill="#3D3B98" fill-opacity="0.82"/>
<circle cx="566" cy="393" r="26" fill="#0D0E0D"/>
<circle cx="683" cy="377" r="10" fill="#0D0E0D"/>
<line x1="484.5" y1="546" x2="484.5" y2="140" stroke="black"/>
<line x1="424.38" y1="345.813" x2="524.025" y2="272.186" stroke="black"/>
<line x1="417.586" y1="561.72" x2="605.586" y2="283.72" stroke="black"/>
<line x1="672.524" y1="604.152" x2="570.524" y2="284.152" stroke="black"/>
<line x1="643.702" y1="603.599" x2="682.702" y2="574.599" stroke="black"/>
<line x1="628.732" y1="589.578" x2="672.732" y2="561.578" stroke="black"/>
<line x1="452.089" y1="169.642" x2="515.153" y2="185.387" stroke="black"/>
<line x1="453.121" y1="161.515" x2="516.185" y2="177.26" stroke="black"/>
<line x1="418.252" y1="376.568" x2="707.252" y2="545.568" stroke="black"/>
</svg>
