



<svg width="585" height="400" viewBox="-1400 -1200 4020 4078" fill="none" xmlns="http://www.w3.org/2000/svg">
<g clip-path="url(#clip0)">
<path d="M304.251 2478.56C40.5289 1790.88 91.5866 1360.24 457.398 1186.62C1006.13 926.185 2309.8 824.481 2855.84 258.075C3401.86 -308.321 5062.18 134.281 5344.23 1109.17C5626.28 2084.06 6134.65 3586.85 3437.24 3580.72C1638.95 3576.62 594.639 3209.25 304.26 2478.56L304.251 2478.56Z" fill="#FFD6A6"/>
<path d="M2773.85 3014.2C2702.57 2859.46 2715.77 2762.32 2813.46 2722.77C2959.99 2663.46 3308.66 2639.1 3454.15 2510.81C3599.63 2382.53 4044.29 2480.49 4120.78 2699.96C4197.27 2919.43 4334.86 3257.67 3613.2 3259.24C3132.09 3260.29 2852.31 3178.61 2773.85 3014.2L2773.85 3014.2Z" fill="#FFFA72"/>
<path d="M775.993 2562.47C543.785 1972.32 586.648 1601.92 904.56 1451.26C1381.44 1225.27 2516.33 1132.82 2989.73 643.811C3463.12 154.809 4910.6 528.893 5159.84 1365.86C5409.07 2202.83 5857.35 3492.74 3508.36 3497.85C1942.35 3501.26 1031.58 3189.47 776.001 2562.47L775.993 2562.47Z" fill="#F4C48B"/>
<path d="M1190.23 2597.09C987.425 2121.91 1024.93 1823.63 1302.73 1702.27C1719.43 1520.21 2711.04 1445.6 3124.74 1051.75C3538.43 657.904 4803.1 958.923 5020.74 1632.86C5238.38 2306.81 5629.87 3345.45 3577.46 3349.92C2209.18 3352.9 1413.45 3101.96 1190.23 2597.09L1190.23 2597.09Z" fill="#E8B273"/>
<path d="M1620.98 2668.31C1445.67 2245.26 1478.07 1979.71 1718.17 1871.68C2078.34 1709.62 2935.43 1643.25 3293 1292.64C3650.54 942.029 4743.67 1210.09 4931.83 1810.1C5119.99 2410.1 5458.43 3334.81 3684.43 3338.67C2501.76 3341.24 1813.96 3117.8 1620.99 2668.31L1620.98 2668.31Z" fill="#E2A054"/>





</g>
<defs>
<clipPath id="clip0">
<rect width="5863.41" height="3573.19" fill="white" transform="matrix(0.999998 -0.00217756 -0.00217756 -0.999998 7.78076 3585.95)"/>
</clipPath>
</defs>
</svg>

