<svg width="585" height="400" viewBox="-8000 -3000 19520 11678" fill="none" xmlns="http://www.w3.org/2000/svg">
<g clip-path="url(#clip0)">
<path d="M994.36 8100.51C132.454 5853.02 299.323 4445.56 1494.88 3878.13C3288.25 3026.98 7548.96 2694.59 9333.54 843.447C11118.1 -1007.66 16544.4 438.86 17466.2 3625.02C18388 6811.18 20049.4 11722.6 11233.7 11702.6C5356.45 11689.2 1943.41 10488.6 994.389 8100.51L994.36 8100.51Z" fill="#D6F2FF"/>
<path d="M9065.58 9851.1C8832.61 9345.36 8875.77 9027.88 9195.03 8898.65C9673.92 8704.8 10813.5 8625.19 11288.9 8205.91C11764.4 7786.64 13217.7 8106.8 13467.6 8824.09C13717.6 9541.38 14167.3 10646.8 11808.8 10651.9C10236.4 10655.4 9322.01 10388.4 9065.59 9851.1L9065.58 9851.1Z" fill="#FFFA72"/>
<path d="M5324.98 8567.39C4707.62 7227.19 4821.99 6385.85 5668.01 6043.38C6937.08 5529.68 9956.86 5318.74 11216.9 4207.64C12476.9 3096.56 16328 3944.99 16990.5 5845.81C17652.9 7746.62 18844.6 10676 12594.4 10689.6C8427.62 10698.7 6004.52 9991.31 5325 8567.39L5324.98 8567.39Z" fill="#C7E1F3"/>
<path d="M2536.12 8374.72C1777.21 6446 1917.3 5235.45 2956.31 4743.06C4514.86 4004.47 8223.94 3702.32 9771.13 2104.12C11318.3 505.952 16049 1728.54 16863.5 4463.95C17678.1 7199.37 19143.2 11415.1 11466.1 11431.8C6348.05 11442.9 3371.44 10423.9 2536.15 8374.72L2536.12 8374.72Z" fill="#B8CFE6"/>
<path d="M3889.93 8487.9C3227.13 6934.89 3349.71 5960.06 4257.61 5563.4C5619.49 4968.41 8860.3 4724.55 10212.4 3437.35C11564.4 2150.18 15697.6 3133.98 16408.9 5336.57C17120.2 7539.17 18399.7 10933.7 11692 10948.3C7220.11 10958 4619.48 10137.9 3889.96 8487.9L3889.93 8487.9Z" fill="#A9BEDA"/>
<path d="M5297.75 8720.66C4724.77 7338.01 4830.66 6470.15 5615.38 6117.06C6792.49 5587.44 9593.67 5370.51 10762.3 4224.63C11930.8 3078.77 15503.4 3954.85 16118.4 5915.81C16733.3 7876.77 17839.4 10898.9 12041.6 10911.5C8176.32 10919.9 5928.42 10189.7 5297.77 8720.66L5297.75 8720.66Z" fill="#9AADCE"/>
<path d="M5938.86 8983.36C5416.92 7788.28 5513.5 7038.1 6228.54 6732.81C7301.12 6274.89 9853.47 6087.1 10918.4 5096.49C11983.2 4105.9 15238.3 4862.82 15798.4 6557.79C16358.6 8252.75 17366.1 10864.9 12083.3 10876.4C8561.47 10884.1 6513.36 10253.1 5938.88 8983.36L5938.86 8983.36Z" fill="#8B9BC1"/>
<path d="M6475.83 9180C6000.07 8134.03 6088.18 7477.42 6740.12 7210.16C7718.04 6809.27 10045.1 6644.71 11016 5777.58C11986.9 4910.47 14954.6 5572.71 15465.1 7056.21C15975.7 8539.7 16894 10826 12077.7 10836.5C8866.75 10843.4 6999.51 10291.3 6475.85 9180L6475.83 9180Z" fill="#7D8AB5"/>
<path d="M7228.99 9339.72C6809.78 8417.46 6887.42 7838.51 7461.86 7602.86C8323.53 7249.39 10373.9 7104.29 11229.5 6339.72C12085 5575.17 14699.9 6159.09 15149.7 7467.12C15599.6 8775.16 16408.8 10791 12164.9 10800.3C9335.7 10806.4 7690.42 10319.6 7229 9339.72L7228.99 9339.72Z" fill="#6E79A9"/>
<path d="M7904.07 9511.09C7556.37 8744.81 7620.77 8263.78 8097.21 8067.99C8811.9 7774.3 10512.5 7653.75 11222.1 7018.5C11931.7 6383.26 14100.5 6868.43 14473.6 7955.24C14846.7 9042.04 15517.9 10717 11998 10724.6C9651.41 10729.7 8286.79 10325.2 7904.09 9511.09L7904.07 9511.09Z" fill="#505690"/>
<path d="M8729.49 9420.9C8461.58 8839.3 8511.21 8474.19 8878.35 8325.58C9429.08 8102.65 10739.5 8011.11 11286.4 7528.93C11833.1 7046.76 13504.4 7414.95 13791.9 8239.83C14079.3 9064.72 14596.5 10336 11884.2 10341.9C10075.9 10345.8 9024.38 10038.8 8729.5 9420.9L8729.49 9420.9Z" fill="#323377"/>
</g>
<defs>
<clipPath id="clip0">
<rect width="19163" height="11678" fill="white" transform="matrix(0.999998 -0.00217756 -0.00217756 -0.999998 25.4297 11719.7)"/>
</clipPath>
</defs>
</svg>


