<svg width="1116" height="888" viewBox="400 0 3116 2888" fill="none" xmlns="http://www.w3.org/2000/svg">
<path d="M152.514 662.183C146.093 652.758 148.367 639.932 157.636 633.289L900.437 100.976C908.509 95.1914 919.53 95.8519 926.853 102.559L933.215 108.385C942.257 116.667 942.31 130.901 933.331 139.25L255.14 769.901C245.725 778.656 230.724 776.972 223.485 766.347L152.514 662.183Z" fill="#E78A1F"/>
<path d="M879.268 665.895C867.003 677.917 847.302 677.678 835.334 665.361L362.241 178.483C353.919 169.917 353.519 156.412 361.322 147.37V147.37C369.593 137.784 384.049 136.668 393.695 144.869L912.478 585.997C926.365 597.805 927.115 618.989 914.098 631.751L879.268 665.895Z" fill="#39AD92"/>
<path d="M794 452C794 571.008 694.449 668 571 668C447.551 668 348 571.008 348 452C348 332.992 447.551 236 571 236C694.449 236 794 332.992 794 452Z" stroke="black" stroke-width="20"/>
<path d="M597.5 318L672.5 382L613.5 437L539 360L597.5 318Z" fill="#9E5E88"/>
<ellipse cx="511" cy="353" rx="60" ry="58" fill="#20883D" fill-opacity="0.72"/>
<ellipse cx="668.5" cy="400.5" rx="76.5" ry="73.5" fill="#ACC155" fill-opacity="0.81"/>
<circle cx="596" cy="464" r="111" fill="#9C331C" fill-opacity="0.72"/>
<circle cx="538.5" cy="464.5" r="53.5" fill="#3D3B98" fill-opacity="0.82"/>
<circle cx="566" cy="393" r="26" fill="#0D0E0D"/>
<circle cx="683" cy="377" r="10" fill="#0D0E0D"/>
<line x1="484.5" y1="546" x2="484.5" y2="140" stroke="black"/>
<line x1="424.38" y1="345.813" x2="524.025" y2="272.186" stroke="black"/>
<line x1="417.586" y1="561.72" x2="605.586" y2="283.72" stroke="black"/>
<line x1="672.524" y1="604.152" x2="570.524" y2="284.152" stroke="black"/>
<line x1="643.702" y1="603.599" x2="682.702" y2="574.599" stroke="black"/>
<line x1="628.732" y1="589.578" x2="672.732" y2="561.578" stroke="black"/>
<line x1="452.089" y1="169.642" x2="515.153" y2="185.387" stroke="black"/>
<line x1="453.121" y1="161.515" x2="516.185" y2="177.26" stroke="black"/>
<line x1="418.252" y1="376.568" x2="707.252" y2="545.568" stroke="black"/>
</svg>
